<svg width="44" height="42" viewBox="0 0 44 42" fill="none" xmlns="http://www.w3.org/2000/svg">
<path d="M44 38V42H30V38H34.92L22 7.22C21.62 6.28 21 5.52 20.12 4.92C19.24 4.32 18.28 4 17.22 4C15.8 4 14.56 4.54 13.52 5.58C12.48 6.62 12 7.84 12 9.28V16H14C18.42 16 22 19.58 22 24V42H14C15.22 40.32 16 38.26 16 36C16 30.48 11.52 26 6 26C4.58 26 3.22 26.3 2 26.84V16H8V9.28C8 7.6 8.46 6 9.26 4.64C10.08 3.24 11.18 2.12 12.6 1.26C14 0.42 15.54 0 17.22 0C19.1 0 20.8 0.52 22.32 1.54C23.84 2.56 25 3.94 25.74 5.62L39.32 38H44ZM12 36C12 39.32 9.32 42 6 42C2.68 42 0 39.32 0 36C0 32.68 2.68 30 6 30C9.32 30 12 32.68 12 36ZM8 36C8 34.9 7.1 34 6 34C4.9 34 4 34.9 4 36C4 37.1 4.9 38 6 38C7.1 38 8 37.1 8 36Z" fill="#F77C0B"/>
</svg>
