<svg width="21" height="21" viewBox="0 0 21 21" fill="none" xmlns="http://www.w3.org/2000/svg">
<path d="M12.25 10.5L9.1875 12.25V8.75L12.25 10.5Z" fill="black" stroke="black" stroke-width="1.2" stroke-linecap="round" stroke-linejoin="round"/>
<path d="M1.75 11.1196V9.8806C1.75 7.34747 1.75 6.08047 2.54187 5.26585C3.33462 4.45035 4.58238 4.41535 7.077 4.34447C8.25825 4.31122 9.46575 4.2876 10.5 4.2876C11.5343 4.2876 12.7409 4.31122 13.923 4.34447C16.4176 4.41535 17.6654 4.45035 18.4572 5.26585C19.2491 6.08135 19.25 7.34835 19.25 9.8806V11.1187C19.25 13.6527 19.25 14.9188 18.4581 15.7343C17.6654 16.549 16.4185 16.5848 13.923 16.6548C12.7417 16.689 11.5343 16.7126 10.5 16.7126C9.46575 16.7126 8.25913 16.689 7.077 16.6548C4.58238 16.5848 3.33462 16.5498 2.54187 15.7343C1.74912 14.9188 1.75 13.6518 1.75 11.1196Z" stroke="black" stroke-width="1.2"/>
</svg>
